<svg xmlns="http://www.w3.org/2000/svg" xmlns:xlink="http://www.w3.org/1999/xlink" id="processonSvg1000" viewBox="192.0 57.46665954589844 821.0 1050.250015258789" width="821.0" height="1050.250015258789"><defs id="ProcessOnDefs1001"><linearGradient id="ProcessOnLinearGradient1217" x1="0.9469983318002789" y1="0.9669873434213988" x2="0.4119770267643943" y2="0.0"><stop id="ProcessOnStop1218" stop-opacity="1.0" stop-color="#9dd7ed" offset="0.0"/><stop id="ProcessOnStop1219" stop-opacity="1.0" stop-color="#899dc0" offset="1.0"/></linearGradient><linearGradient id="ProcessOnLinearGradient1224" x1="0.9469983318002789" y1="0.9669873434213988" x2="0.4119770267643943" y2="0.0"><stop id="ProcessOnStop1225" stop-opacity="1.0" stop-color="#9dd7ed" offset="0.0"/><stop id="ProcessOnStop1226" stop-opacity="1.0" stop-color="#899dc0" offset="1.0"/></linearGradient><marker id="ProcessOnMarker1236" markerUnits="userSpaceOnUse" orient="auto" markerWidth="16.23606797749979" markerHeight="10.550836550532098" viewBox="-1.0 -1.3763819204711736 16.23606797749979 10.550836550532098" refX="-1.0" refY="3.8990363547948754"><path id="ProcessOnPath1237" d="M12.0 3.8990363547948754L0.0 7.798072709589751V0.0Z" stroke="#ff0000" stroke-width="2.0" fill="#ff0000" transform="matrix(1.0,0.0,0.0,1.0,0.0,0.0)"/></marker><marker id="ProcessOnMarker1240" markerUnits="userSpaceOnUse" orient="auto" markerWidth="16.23606797749979" markerHeight="10.550836550532098" viewBox="-1.0 -1.3763819204711736 16.23606797749979 10.550836550532098" refX="-1.0" refY="3.8990363547948754"><path id="ProcessOnPath1241" d="M12.0 3.8990363547948754L0.0 7.798072709589751V0.0Z" stroke="#ff0000" stroke-width="2.0" fill="#ff0000" transform="matrix(1.0,0.0,0.0,1.0,0.0,0.0)"/></marker><marker id="ProcessOnMarker1244" markerUnits="userSpaceOnUse" orient="auto" markerWidth="16.23606797749979" markerHeight="10.550836550532098" viewBox="-1.0 -1.3763819204711736 16.23606797749979 10.550836550532098" refX="-1.0" refY="3.8990363547948754"><path id="ProcessOnPath1245" d="M12.0 3.8990363547948754L0.0 7.798072709589751V0.0Z" stroke="#ff0000" stroke-width="2.0" fill="#ff0000" transform="matrix(1.0,0.0,0.0,1.0,0.0,0.0)"/></marker><marker id="ProcessOnMarker1248" markerUnits="userSpaceOnUse" orient="auto" markerWidth="16.23606797749979" markerHeight="10.550836550532098" viewBox="-1.0 -1.3763819204711736 16.23606797749979 10.550836550532098" refX="-1.0" refY="3.8990363547948754"><path id="ProcessOnPath1249" d="M12.0 3.8990363547948754L0.0 7.798072709589751V0.0Z" stroke="#ff0000" stroke-width="2.0" fill="#ff0000" transform="matrix(1.0,0.0,0.0,1.0,0.0,0.0)"/></marker><marker id="ProcessOnMarker1252" markerUnits="userSpaceOnUse" orient="auto" markerWidth="16.23606797749979" markerHeight="10.550836550532098" viewBox="-1.0 -1.3763819204711736 16.23606797749979 10.550836550532098" refX="-1.0" refY="3.8990363547948754"><path id="ProcessOnPath1253" d="M12.0 3.8990363547948754L0.0 7.798072709589751V0.0Z" stroke="#ff0000" stroke-width="2.0" fill="#ff0000" transform="matrix(1.0,0.0,0.0,1.0,0.0,0.0)"/></marker><marker id="ProcessOnMarker1256" markerUnits="userSpaceOnUse" orient="auto" markerWidth="16.23606797749979" markerHeight="10.550836550532098" viewBox="-1.0 -1.3763819204711736 16.23606797749979 10.550836550532098" refX="-1.0" refY="3.8990363547948754"><path id="ProcessOnPath1257" d="M12.0 3.8990363547948754L0.0 7.798072709589751V0.0Z" stroke="#ff0000" stroke-width="2.0" fill="#ff0000" transform="matrix(1.0,0.0,0.0,1.0,0.0,0.0)"/></marker><marker id="ProcessOnMarker1260" markerUnits="userSpaceOnUse" orient="auto" markerWidth="16.23606797749979" markerHeight="10.550836550532098" viewBox="-1.0 -1.3763819204711736 16.23606797749979 10.550836550532098" refX="-1.0" refY="3.8990363547948754"><path id="ProcessOnPath1261" d="M12.0 3.8990363547948754L0.0 7.798072709589751V0.0Z" stroke="#ff0000" stroke-width="2.0" fill="#ff0000" transform="matrix(1.0,0.0,0.0,1.0,0.0,0.0)"/></marker><marker id="ProcessOnMarker1264" markerUnits="userSpaceOnUse" orient="auto" markerWidth="16.23606797749979" markerHeight="10.550836550532098" viewBox="-1.0 -1.3763819204711736 16.23606797749979 10.550836550532098" refX="-1.0" refY="3.8990363547948754"><path id="ProcessOnPath1265" d="M12.0 3.8990363547948754L0.0 7.798072709589751V0.0Z" stroke="#ff0000" stroke-width="2.0" fill="#ff0000" transform="matrix(1.0,0.0,0.0,1.0,0.0,0.0)"/></marker><marker id="ProcessOnMarker1268" markerUnits="userSpaceOnUse" orient="auto" markerWidth="16.23606797749979" markerHeight="10.550836550532098" viewBox="-1.0 -1.3763819204711736 16.23606797749979 10.550836550532098" refX="-1.0" refY="3.8990363547948754"><path id="ProcessOnPath1269" d="M12.0 3.8990363547948754L0.0 7.798072709589751V0.0Z" stroke="#ff0000" stroke-width="2.0" fill="#ff0000" transform="matrix(1.0,0.0,0.0,1.0,0.0,0.0)"/></marker></defs><g id="ProcessOnG1002"><path id="ProcessOnPath1003" d="M192.0 57.46665954589844H1013.0V1107.7166748046875H192.0V57.46665954589844Z" fill="#ffffff"/><g id="ProcessOnG1004"><g id="ProcessOnG1005" transform="matrix(1.0,0.0,0.0,1.0,212.0,77.46665954589844)" opacity="1.0"><path id="ProcessOnPath1006" d="M0.0 0.0L640.0 0.0L640.0 96.53334045410156L0.0 96.53334045410156Z" stroke="#323232" stroke-width="2.0" stroke-dasharray="none" opacity="1.0" fill="none"/><path id="ProcessOnPath1007" d="M0.0 0.0L40.0 0.0L40.0 96.53334045410156L0.0 96.53334045410156Z" stroke="#323232" stroke-width="2.0" stroke-dasharray="none" opacity="1.0" fill="#cce5ff"/><g id="ProcessOnG1008" transform="matrix(0.0,-1.0,1.0,0.0,10.0,84.53334045410156)"><text id="ProcessOnText1009" fill="#000000" font-size="16" x="37.26667022705078" y="16.4" font-family="微软雅黑" font-weight="normal" font-style="normal" text-decoration="none" family="微软雅黑" text-anchor="middle" size="16">访问层</text></g></g><g id="ProcessOnG1010" transform="matrix(1.0,0.0,0.0,1.0,212.0,225.0)" opacity="1.0"><path id="ProcessOnPath1011" d="M0.0 0.0L640.0 0.0L640.0 78.71665954589844L0.0 78.71665954589844Z" stroke="#323232" stroke-width="2.0" stroke-dasharray="none" opacity="1.0" fill="none"/><path id="ProcessOnPath1012" d="M0.0 0.0L40.0 0.0L40.0 78.71665954589844L0.0 78.71665954589844Z" stroke="#323232" stroke-width="2.0" stroke-dasharray="none" opacity="1.0" fill="#99ccff"/><g id="ProcessOnG1013" transform="matrix(0.0,-1.0,1.0,0.0,10.0,66.71665954589844)"><text id="ProcessOnText1014" fill="#000000" font-size="16" x="28.35832977294922" y="16.4" font-family="微软雅黑" font-weight="normal" font-style="normal" text-decoration="none" family="微软雅黑" text-anchor="middle" size="16">WEB层</text></g></g><g id="ProcessOnG1015" transform="matrix(1.0,0.0,0.0,1.0,212.0,730.0)" opacity="1.0"><path id="ProcessOnPath1016" d="M0.0 0.0L640.0 0.0L640.0 85.33334350585938L0.0 85.33334350585938Z" stroke="#323232" stroke-width="2.0" stroke-dasharray="none" opacity="1.0" fill="none"/><path id="ProcessOnPath1017" d="M0.0 0.0L40.0 0.0L40.0 85.33334350585938L0.0 85.33334350585938Z" stroke="#323232" stroke-width="2.0" stroke-dasharray="none" opacity="1.0" fill="#ffcccc"/><g id="ProcessOnG1018" transform="matrix(0.0,-1.0,1.0,0.0,11.875,73.33334350585938)"><text id="ProcessOnText1019" fill="#000000" font-size="13" x="31.666671752929688" y="13.325" font-family="微软雅黑" font-weight="normal" font-style="normal" text-decoration="none" family="微软雅黑" text-anchor="middle" size="13">接口层</text></g></g><g id="ProcessOnG1020" transform="matrix(1.0,0.0,0.0,1.0,212.0,336.0)" opacity="1.0"><path id="ProcessOnPath1021" d="M0.0 0.0L640.0 0.0L640.0 357.9166717529297L0.0 357.9166717529297Z" stroke="#323232" stroke-width="2.0" stroke-dasharray="none" opacity="1.0" fill="none"/><path id="ProcessOnPath1022" d="M0.0 0.0L40.0 0.0L40.0 357.9166717529297L0.0 357.9166717529297Z" stroke="#323232" stroke-width="2.0" stroke-dasharray="none" opacity="1.0" fill="#66b2ff"/><g id="ProcessOnG1023" transform="matrix(0.0,-1.0,1.0,0.0,10.0,345.9166717529297)"><text id="ProcessOnText1024" fill="#000000" font-size="16" x="167.95833587646484" y="16.4" font-family="微软雅黑" font-weight="normal" font-style="normal" text-decoration="none" family="微软雅黑" text-anchor="middle" size="16">服务层（逻辑层）</text></g></g><g id="ProcessOnG1025" transform="matrix(1.0,0.0,0.0,1.0,743.0,370.86669921875)" opacity="1.0"><path id="ProcessOnPath1026" d="M0.0 0.0L96.0 0.0L96.0 307.08331298828125L0.0 307.08331298828125Z" stroke="#323232" stroke-width="2.0" stroke-dasharray="none" opacity="1.0" fill="none"/><path id="ProcessOnPath1027" d="M0.0 0.0L96.0 0.0L96.0 40.0L0.0 40.0Z" stroke="#323232" stroke-width="2.0" stroke-dasharray="none" opacity="1.0" fill="#ffb366"/><g id="ProcessOnG1028" transform="matrix(1.0,0.0,0.0,1.0,10.0,0.0)"><text id="ProcessOnText1029" fill="#000000" font-size="16" x="0.0" y="16.4" font-family="微软雅黑" font-weight="normal" font-style="normal" text-decoration="none" family="微软雅黑" text-anchor="start" size="16">后台管理</text></g></g><g id="ProcessOnG1030" transform="matrix(1.0,0.0,0.0,1.0,262.0,372.24168395996094)" opacity="1.0"><path id="ProcessOnPath1031" d="M0.0 0.0L87.0 0.0L87.0 307.08331298828125L0.0 307.08331298828125Z" stroke="#323232" stroke-width="2.0" stroke-dasharray="none" opacity="1.0" fill="none"/><path id="ProcessOnPath1032" d="M0.0 0.0L87.0 0.0L87.0 40.0L0.0 40.0Z" stroke="#323232" stroke-width="2.0" stroke-dasharray="none" opacity="1.0" fill="#ff9999"/><g id="ProcessOnG1033" transform="matrix(1.0,0.0,0.0,1.0,10.0,0.0)"><text id="ProcessOnText1034" fill="#000000" font-size="16" x="0.0" y="16.4" font-family="微软雅黑" font-weight="normal" font-style="normal" text-decoration="none" family="微软雅黑" text-anchor="start" size="16">用户功能</text></g></g><g id="ProcessOnG1035" transform="matrix(1.0,0.0,0.0,1.0,751.0,420.49168395996094)" opacity="1.0"><path id="ProcessOnPath1036" d="M0.0 0.0L80.0 0.0L80.0 35.0L0.0 35.0Z" stroke="#323232" stroke-width="2.0" stroke-dasharray="none" opacity="1.0" fill="#ffb366"/><g id="ProcessOnG1037" transform="matrix(1.0,0.0,0.0,1.0,10.0,9.375)"><text id="ProcessOnText1038" fill="#000000" font-size="13" x="29.0" y="13.325" font-family="微软雅黑" font-weight="normal" font-style="normal" text-decoration="none" family="微软雅黑" text-anchor="middle" size="13">配置管理</text></g></g><g id="ProcessOnG1039" transform="matrix(1.0,0.0,0.0,1.0,751.0,460.24168395996094)" opacity="1.0"><path id="ProcessOnPath1040" d="M0.0 0.0L80.0 0.0L80.0 32.0L0.0 32.0Z" stroke="#323232" stroke-width="2.0" stroke-dasharray="none" opacity="1.0" fill="#ffb366"/><g id="ProcessOnG1041" transform="matrix(1.0,0.0,0.0,1.0,10.0,7.875)"><text id="ProcessOnText1042" fill="#000000" font-size="13" x="29.0" y="13.325" font-family="微软雅黑" font-weight="normal" font-style="normal" text-decoration="none" family="微软雅黑" text-anchor="middle" size="13">权限管理</text></g></g><g id="ProcessOnG1043" transform="matrix(1.0,0.0,0.0,1.0,751.0,497.4083557128906)" opacity="1.0"><path id="ProcessOnPath1044" d="M0.0 0.0L80.0 0.0L80.0 31.0L0.0 31.0Z" stroke="#323232" stroke-width="2.0" stroke-dasharray="none" opacity="1.0" fill="#ffb366"/><g id="ProcessOnG1045" transform="matrix(1.0,0.0,0.0,1.0,10.0,7.375)"><text id="ProcessOnText1046" fill="#000000" font-size="13" x="29.0" y="13.325" font-family="微软雅黑" font-weight="normal" font-style="normal" text-decoration="none" family="微软雅黑" text-anchor="middle" size="13">认证管理</text></g></g><g id="ProcessOnG1047" transform="matrix(1.0,0.0,0.0,1.0,751.0,574.9250183105469)" opacity="1.0"><path id="ProcessOnPath1048" d="M0.0 0.0L80.0 0.0L80.0 29.0L0.0 29.0Z" stroke="#323232" stroke-width="2.0" stroke-dasharray="none" opacity="1.0" fill="#ffb366"/><g id="ProcessOnG1049" transform="matrix(1.0,0.0,0.0,1.0,10.0,6.375)"><text id="ProcessOnText1050" fill="#000000" font-size="13" x="29.0" y="13.325" font-family="微软雅黑" font-weight="normal" font-style="normal" text-decoration="none" family="微软雅黑" text-anchor="middle" size="13">新闻管理</text></g></g><g id="ProcessOnG1051" transform="matrix(1.0,0.0,0.0,1.0,280.0,420.49168395996094)" opacity="1.0"><path id="ProcessOnPath1052" d="M0.0 0.0L53.0 0.0L53.0 26.5L0.0 26.5Z" stroke="#323232" stroke-width="2.0" stroke-dasharray="none" opacity="1.0" fill="#ff9999"/><g id="ProcessOnG1053" transform="matrix(1.0,0.0,0.0,1.0,10.0,5.125)"><text id="ProcessOnText1054" fill="#000000" font-size="13" x="15.5" y="13.325" font-family="微软雅黑" font-weight="normal" font-style="normal" text-decoration="none" family="微软雅黑" text-anchor="middle" size="13">注册</text></g></g><g id="ProcessOnG1055" transform="matrix(1.0,0.0,0.0,1.0,280.0,463.24168395996094)" opacity="1.0"><path id="ProcessOnPath1056" d="M0.0 0.0L53.0 0.0L53.0 27.0L0.0 27.0Z" stroke="#323232" stroke-width="2.0" stroke-dasharray="none" opacity="1.0" fill="#ff9999"/><g id="ProcessOnG1057" transform="matrix(1.0,0.0,0.0,1.0,10.0,5.375)"><text id="ProcessOnText1058" fill="#000000" font-size="13" x="15.5" y="13.325" font-family="微软雅黑" font-weight="normal" font-style="normal" text-decoration="none" family="微软雅黑" text-anchor="middle" size="13">认证</text></g></g><g id="ProcessOnG1059" transform="matrix(1.0,0.0,0.0,1.0,280.0,507.74168395996094)" opacity="1.0"><path id="ProcessOnPath1060" d="M0.0 0.0L53.0 0.0L53.0 29.5L0.0 29.5Z" stroke="#323232" stroke-width="2.0" stroke-dasharray="none" opacity="1.0" fill="#ff9999"/><g id="ProcessOnG1061" transform="matrix(1.0,0.0,0.0,1.0,10.0,6.625)"><text id="ProcessOnText1062" fill="#000000" font-size="13" x="15.5" y="13.325" font-family="微软雅黑" font-weight="normal" font-style="normal" text-decoration="none" family="微软雅黑" text-anchor="middle" size="13">发帖</text></g></g><g id="ProcessOnG1063" transform="matrix(1.0,0.0,0.0,1.0,277.0,553.0)" opacity="1.0"><path id="ProcessOnPath1064" d="M0.0 0.0L59.0 0.0L59.0 32.30000305175781L0.0 32.30000305175781Z" stroke="#323232" stroke-width="2.0" stroke-dasharray="none" opacity="1.0" fill="#ff9999"/><g id="ProcessOnG1065" transform="matrix(1.0,0.0,0.0,1.0,10.0,-0.09999847412109375)"><text id="ProcessOnText1066" fill="#000000" font-size="13" x="18.5" y="13.325" font-family="微软雅黑" font-weight="normal" font-style="normal" text-decoration="none" family="微软雅黑" text-anchor="middle" size="13">传图</text><text id="ProcessOnText1067" fill="#000000" font-size="13" x="18.5" y="29.575" font-family="微软雅黑" font-weight="normal" font-style="normal" text-decoration="none" family="微软雅黑" text-anchor="middle" size="13">片</text></g></g><g id="ProcessOnG1068" transform="matrix(1.0,0.0,0.0,1.0,212.0,844.6333465576172)" opacity="1.0"><path id="ProcessOnPath1069" d="M0.0 0.0L640.0 0.0L640.0 235.0833282470703L0.0 235.0833282470703Z" stroke="#323232" stroke-width="2.0" stroke-dasharray="none" opacity="1.0" fill="none"/><path id="ProcessOnPath1070" d="M0.0 0.0L40.0 0.0L40.0 235.0833282470703L0.0 235.0833282470703Z" stroke="#323232" stroke-width="2.0" stroke-dasharray="none" opacity="1.0" fill="#ff8000"/><g id="ProcessOnG1071" transform="matrix(0.0,-1.0,1.0,0.0,10.0,223.0833282470703)"><text id="ProcessOnText1072" fill="#000000" font-size="16" x="106.54166412353516" y="16.4" font-family="微软雅黑" font-weight="normal" font-style="normal" text-decoration="none" family="微软雅黑" text-anchor="middle" size="16">服务器层</text></g></g><g id="ProcessOnG1073" transform="matrix(1.0,0.0,0.0,1.0,649.1833724975586,581.5666809082031)" opacity="1.0"><path id="ProcessOnPath1074" d="M0.0 6.0Q0.0 0.0 6.0 0.0L64.21665954589844 0.0Q70.21665954589844 0.0 70.21665954589844 6.0L70.21665954589844 77.21665954589844Q70.21665954589844 83.21665954589844 64.21665954589844 83.21665954589844L6.0 83.21665954589844Q0.0 83.21665954589844 0.0 77.21665954589844L0.0 6.0Z" stroke="none" stroke-width="0.0" stroke-dasharray="none" opacity="1.0" fill="#99ccff"/><path id="ProcessOnPath1075" d="M0.0 58.21665954589844L70.21665954589844 58.21665954589844L70.21665954589844 77.21665954589844Q70.21665954589844 83.21665954589844 64.21665954589844 83.21665954589844L6.0 83.21665954589844Q0.0 83.21665954589844 0.0 77.21665954589844Z" stroke="none" stroke-width="0.0" stroke-dasharray="none" opacity="1.0" fill="#679acd"/><path id="ProcessOnPath1076" d="M0.0 25.0L70.21665954589844 25.0" stroke="#323232" stroke-width="2.0" stroke-dasharray="none" opacity="1.0" fill="#99ccff"/><path id="ProcessOnPath1077" d="M0.0 58.21665954589844L70.21665954589844 58.21665954589844" stroke="#323232" stroke-width="2.0" stroke-dasharray="none" opacity="1.0" fill="#99ccff"/><path id="ProcessOnPath1078" d="M0.0 6.0Q0.0 0.0 6.0 0.0L64.21665954589844 0.0Q70.21665954589844 0.0 70.21665954589844 6.0L70.21665954589844 77.21665954589844Q70.21665954589844 83.21665954589844 64.21665954589844 83.21665954589844L6.0 83.21665954589844Q0.0 83.21665954589844 0.0 77.21665954589844L0.0 6.0Z" stroke="#323232" stroke-width="2.0" stroke-dasharray="none" opacity="1.0" fill="none"/><g id="ProcessOnG1079" transform="matrix(1.0,0.0,0.0,1.0,5.0,33.48332977294922)"><text id="ProcessOnText1080" fill="#000000" font-size="13" x="29.10832977294922" y="13.325" font-family="微软雅黑" font-weight="normal" font-style="normal" text-decoration="none" family="微软雅黑" text-anchor="middle" size="13">API 服务</text></g><g id="ProcessOnG1081" transform="matrix(1.0,0.0,0.0,1.0,5.0,4.375)"><text id="ProcessOnText1082" fill="#000000" font-size="13" x="29.10832977294922" y="13.325" font-family="微软雅黑" font-weight="normal" font-style="normal" text-decoration="none" family="微软雅黑" text-anchor="middle" size="13">REST API</text></g><g id="ProcessOnG1083" transform="matrix(1.0,0.0,0.0,1.0,5.0,62.59165954589844)"><text id="ProcessOnText1084" fill="#000000" font-size="13" x="29.10832977294922" y="13.325" font-family="微软雅黑" font-weight="normal" font-style="normal" text-decoration="none" family="微软雅黑" text-anchor="middle" size="13">通信接口</text></g></g><g id="ProcessOnG1085"><path id="ProcessOnPath1086" d="M373.0 509.40000915527344L720.0 509.40000915527344" stroke="#323232" stroke-width="2.0" stroke-dasharray="10.0 4.0 2.0 4.0" fill="none"/></g><g id="ProcessOnG1087" transform="matrix(1.0,0.0,0.0,1.0,599.7666625976562,89.46665954589844)" opacity="1.0"><g id="ProcessOnG1089" transform="matrix(0.6506568648585226,0.0,0.0,0.6973684210526315,0.0,0.0)"> <g> <path fill="#31333D" d="M40,69.126C40,72.961,36.805,76,32.876,76H7.119C3.202,76,0,72.879,0,69.126V6.885C0,3.121,3.202,0,7.119,0 h25.757C36.805,0,40,3.121,40,6.885V69.126z"/> <rect x="2.56" y="10.719" fill="#FFFFFF" width="34.877" height="56.163"/> <g> <path fill="#DDDDDD" d="M15.042,5.201c0.489,0,0.877,0.391,0.877,0.877c0,0.486-0.389,0.88-0.877,0.88 c-0.487,0-0.884-0.394-0.884-0.88C14.158,5.592,14.555,5.201,15.042,5.201z"/> <path fill="#164C6D" d="M15.042,5.843c0.129,0,0.235,0.107,0.235,0.235c0,0.138-0.106,0.244-0.235,0.244 c-0.138,0-0.244-0.106-0.244-0.244C14.798,5.95,14.904,5.843,15.042,5.843z"/> <path fill="#DDDDDD" d="M25.833,6.323c0,0.154-0.082,0.235-0.229,0.235h-8c-0.163,0-0.244-0.082-0.244-0.235V6.079 c0-0.159,0.081-0.235,0.244-0.235h8.081c0.15,0,0.232,0.077,0.232,0.235v0.244H25.833z"/> </g> <path fill="#DDDDDD" d="M19.999,68.167c1.765,0,3.202,1.419,3.202,3.196c0,1.77-1.438,3.188-3.202,3.188 c-1.764,0-3.202-1.418-3.202-3.188C16.797,69.586,18.235,68.167,19.999,68.167z"/> </g>  </g><g id="ProcessOnG1090" transform="matrix(1.0,0.0,0.0,1.0,-20.0,59.875)"><text id="ProcessOnText1091" fill="#000000" font-size="13" x="32.01313729717045" y="13.325" font-family="微软雅黑" font-weight="normal" font-style="normal" text-decoration="none" family="微软雅黑" text-anchor="middle" size="13">  移动</text></g></g><g id="ProcessOnG1092" transform="matrix(1.0,0.0,0.0,1.0,367.28334045410156,94.46665954589844)" opacity="1.0"><g id="ProcessOnG1094" transform="matrix(1.0,0.0,0.0,1.0,0.0,0.0)"> <g> <path fill="#9BA5A8" d="M40.746,46.869h-0.62L0.073,46.531l0.395,0.507l0.791,0.847C1.314,48,1.54,48,1.708,48h37.177H39.9h0.168 h0.793h36.441c0.168,0,0.396-0.115,0.508-0.227l0.791-0.679l0.395-0.395L40.746,46.869z"/> <path fill="#778184" d="M43.174,46.869c0,0-0.283,0.563-0.619,0.563H36.63c-0.339,0-0.621-0.563-0.621-0.563H43.174z"/> <path fill="#32475A" d="M68.502,36.141H11.073c-0.959,0-1.467-0.508-1.467-1.412V0.958C9.607,0.395,10.001,0,10.566,0h58.5 c0.51,0,0.902,0.395,0.902,0.845v33.826C69.969,35.633,69.46,36.141,68.502,36.141z"/> <path fill="#BBC4CB" d="M78.432,46.869c-25.558,0-52.294,0-77.852,0c-0.62,0-0.789-0.621-0.281-1.184 c2.481-2.938,5.472-5.763,7.954-8.699c0.452-0.563,1.241-0.848,1.748-0.848c19.689,0,39.377,0,59.063,0 c0.511,0,1.24,0.228,1.75,0.789c2.481,2.938,5.473,5.932,7.955,8.867C79.164,46.361,79.053,46.869,78.432,46.869z"/> <path fill="#FFFFFF" d="M67.6,34.445H11.187c0,0,0-1.186,0-1.242V3.387c0,0,0.733,0,0.791,0H67.6v29.816 C67.6,33.261,67.6,34.445,67.6,34.445z"/> <circle fill="#476472" cx="39.505" cy="1.58" r="0.564"/> <g> <path fill="#32475A" d="M13.838,37.328c-0.057,0.054-0.17,0.109-0.226,0.109c-1.015,0-1.974,0-2.99,0 c-0.056,0-0.056-0.057,0-0.109c0.112-0.115,0.17-0.227,0.283-0.398c0.056-0.055,0.168-0.111,0.226-0.111c0.958,0,1.974,0,2.934,0 c0.055,0,0.055,0.058,0.055,0.111C14.007,37.044,13.894,37.155,13.838,37.328z"/> <path fill="#32475A" d="M18.181,37.328c-0.055,0.054-0.113,0.109-0.224,0.109c-1.017,0-1.976,0-2.991,0 c-0.055,0-0.113-0.057-0.055-0.109c0.055-0.115,0.168-0.227,0.224-0.398c0.057-0.055,0.17-0.111,0.226-0.111 c0.959,0,1.975,0,2.934,0c0.057,0,0.113,0.058,0.057,0.111C18.351,37.044,18.294,37.155,18.181,37.328z"/> <path fill="#32475A" d="M22.3,37.328c-0.056,0.054-0.113,0.109-0.168,0.109c-1.017,0-1.974,0-2.991,0 c-0.055,0-0.113-0.057-0.055-0.109c0.055-0.115,0.112-0.227,0.226-0.398c0.056-0.055,0.113-0.111,0.168-0.111 c0.959,0,1.974,0,2.933,0c0.058,0,0.113,0.058,0.058,0.111C22.412,37.044,22.357,37.155,22.3,37.328z"/> <path fill="#32475A" d="M26.7,37.328c0,0.054-0.113,0.109-0.169,0.109c-1.016,0-1.974,0-2.991,0c-0.055,0-0.113-0.057-0.055-0.109 c0.055-0.115,0.113-0.227,0.168-0.398c0.057-0.055,0.113-0.111,0.17-0.111c0.958,0,1.974,0,2.934,0 c0.055,0,0.113,0.058,0.055,0.111C26.757,37.044,26.757,37.155,26.7,37.328z"/> <path fill="#32475A" d="M31.1,37.328c0,0.054-0.113,0.109-0.168,0.109c-1.015,0-1.974,0-2.991,0c-0.055,0-0.112-0.057-0.055-0.109 c0.055-0.115,0.055-0.227,0.113-0.398c0-0.055,0.113-0.111,0.168-0.111c0.959,0,1.974,0,2.934,0c0.057,0,0.113,0.058,0.113,0.111 C31.157,37.044,31.1,37.155,31.1,37.328z"/> <path fill="#32475A" d="M35.445,37.328c0,0.054-0.058,0.109-0.171,0.109c-1.015,0-1.974,0-2.989,0 c-0.055,0-0.113-0.057-0.113-0.109c0-0.115,0.058-0.227,0.058-0.398c0-0.055,0.055-0.111,0.168-0.111c0.959,0,1.974,0,2.933,0 c0.056,0,0.113,0.058,0.113,0.111C35.5,37.044,35.5,37.155,35.445,37.328z"/> <path fill="#32475A" d="M39.563,37.328c0,0.054-0.058,0.109-0.113,0.109c-1.017,0-1.974,0-2.991,0 c-0.056,0-0.113-0.057-0.113-0.109c0-0.115,0-0.227,0.057-0.398c0-0.055,0.056-0.111,0.113-0.111c0.959,0,1.974,0,2.934,0 c0.055,0,0.113,0.058,0.113,0.111C39.563,37.044,39.563,37.155,39.563,37.328z"/> <path fill="#32475A" d="M43.963,37.328c0,0.054-0.059,0.109-0.115,0.109c-1.015,0-1.972,0-2.986,0 c-0.057,0-0.114-0.057-0.114-0.109c0-0.115,0-0.227,0-0.398c0-0.055,0.058-0.111,0.114-0.111c0.957,0,1.973,0,2.935,0 c0.054,0,0.11,0.058,0.11,0.111C43.906,37.044,43.906,37.155,43.963,37.328z"/> <path fill="#32475A" d="M48.307,37.328c0,0.054,0,0.109-0.111,0.109c-1.016,0-1.977,0-2.99,0c-0.059,0-0.115-0.057-0.169-0.109 c0-0.115-0.058-0.227-0.058-0.398c0-0.055,0.058-0.111,0.11-0.111c0.961,0,1.976,0,2.935,0c0.057,0,0.115,0.058,0.172,0.111 C48.248,37.044,48.307,37.155,48.307,37.328z"/> <path fill="#32475A" d="M52.425,37.328c0,0.054,0,0.109-0.056,0.109c-1.016,0-1.977,0-2.991,0c-0.058,0-0.11-0.057-0.169-0.109 c0-0.115-0.057-0.227-0.057-0.398c0-0.055,0-0.111,0.113-0.111c0.957,0,1.973,0,2.935,0c0.054,0,0.169,0.058,0.169,0.111 C52.369,37.044,52.369,37.155,52.425,37.328z"/> <path fill="#32475A" d="M56.826,37.328c0.054,0.054,0,0.109-0.059,0.109c-1.015,0-1.976,0-2.99,0 c-0.057,0-0.168-0.057-0.168-0.109c-0.059-0.115-0.059-0.227-0.114-0.398c0-0.055,0-0.111,0.057-0.111c0.962,0,1.978,0,2.935,0 c0.058,0,0.168,0.058,0.168,0.111C56.711,37.044,56.77,37.155,56.826,37.328z"/> <path fill="#32475A" d="M61.169,37.328c0.058,0.054,0,0.109-0.058,0.109c-1.016,0-1.973,0-2.991,0 c-0.054,0-0.168-0.057-0.168-0.109c-0.058-0.115-0.111-0.227-0.169-0.398c-0.057-0.055,0-0.111,0.058-0.111 c0.957,0,1.972,0,2.935,0c0.054,0,0.168,0.058,0.168,0.111C61.055,37.044,61.111,37.155,61.169,37.328z"/> <path fill="#32475A" d="M65.285,37.328c0.058,0.054,0.058,0.109-0.057,0.109c-1.016,0-1.974,0-2.987,0 c-0.058,0-0.169-0.057-0.228-0.109c-0.057-0.115-0.113-0.227-0.226-0.398c-0.058-0.055,0-0.111,0.058-0.111 c0.957,0,1.973,0,2.934,0c0.055,0,0.169,0.058,0.227,0.111C65.117,37.044,65.229,37.155,65.285,37.328z"/> <path fill="#32475A" d="M69.686,37.328c0.059,0.054,0.059,0.109,0,0.109c-1.015,0-1.973,0-2.99,0 c-0.053,0-0.168-0.057-0.223-0.109c-0.058-0.115-0.173-0.227-0.226-0.398c-0.058-0.055-0.058-0.111,0.053-0.111 c0.962,0,1.978,0,2.935,0c0.058,0,0.173,0.058,0.227,0.111C69.518,37.044,69.575,37.155,69.686,37.328z"/> <path fill="#32475A" d="M12.992,38.568c-0.057,0.111-0.17,0.17-0.282,0.17c-1.017,0-2.031,0-3.046,0 c-0.058,0-0.113-0.059-0.058-0.17c0.171-0.226,0.339-0.45,0.507-0.619c0.058-0.116,0.17-0.174,0.284-0.174 c0.958,0,1.974,0,2.934,0c0.055,0,0.113,0.058,0.055,0.174C13.273,38.118,13.105,38.344,12.992,38.568z"/> <path fill="#32475A" d="M17.505,38.568c-0.058,0.111-0.17,0.17-0.226,0.17c-1.015,0-2.032,0-3.046,0 c-0.055,0-0.113-0.059-0.055-0.17c0.113-0.226,0.281-0.45,0.395-0.619c0.055-0.116,0.168-0.174,0.226-0.174 c0.959,0,1.974,0,2.934,0c0.055,0,0.113,0.058,0.055,0.174C17.731,38.118,17.618,38.344,17.505,38.568z"/> <path fill="#32475A" d="M21.737,38.568c-0.057,0.111-0.113,0.17-0.226,0.17c-1.017,0-2.032,0-3.047,0 c-0.057,0-0.113-0.059-0.057-0.17c0.113-0.226,0.226-0.45,0.339-0.619c0.056-0.116,0.168-0.174,0.226-0.174 c0.959,0,1.974,0,2.934,0c0.055,0,0.112,0.058,0.055,0.174C21.906,38.118,21.847,38.344,21.737,38.568z"/> <path fill="#32475A" d="M26.25,38.568c-0.058,0.111-0.113,0.17-0.226,0.17c-1.017,0-2.032,0-3.047,0 c-0.057,0-0.113-0.059-0.057-0.17c0.113-0.226,0.17-0.45,0.283-0.619c0.056-0.116,0.112-0.174,0.224-0.174 c0.959,0,1.976,0,2.934,0c0.058,0,0.113,0.058,0.113,0.174C26.419,38.118,26.305,38.344,26.25,38.568z"/> <path fill="#32475A" d="M30.76,38.568c0,0.111-0.11,0.17-0.168,0.17c-1.015,0-2.032,0-3.046,0c-0.056,0-0.113-0.059-0.113-0.17 c0.057-0.226,0.113-0.45,0.226-0.619c0-0.116,0.113-0.174,0.226-0.174c0.959,0,1.974,0,2.934,0c0.055,0,0.113,0.058,0.113,0.174 C30.874,38.118,30.819,38.344,30.76,38.568z"/> <path fill="#32475A" d="M35.331,38.568c0,0.111-0.113,0.17-0.168,0.17c-1.018,0-2.032,0-3.047,0c-0.057,0-0.113-0.059-0.113-0.17 c0.056-0.226,0.113-0.45,0.113-0.619c0-0.116,0.113-0.174,0.168-0.174c0.959,0,1.974,0,2.934,0c0.055,0,0.113,0.058,0.113,0.174 C35.387,38.118,35.331,38.344,35.331,38.568z"/> <path fill="#32475A" d="M39.505,38.568c0,0.111-0.055,0.17-0.168,0.17c-1.017,0-2.032,0-3.046,0c-0.058,0-0.171-0.059-0.113-0.17 c0-0.226,0.055-0.45,0.055-0.619c0-0.116,0.058-0.174,0.17-0.174c0.959,0,1.974,0,2.934,0c0.056,0,0.168,0.058,0.168,0.174 C39.563,38.118,39.563,38.344,39.505,38.568z"/> <path fill="#32475A" d="M44.074,38.568c0,0.111-0.055,0.17-0.111,0.17c-1.015,0-2.029,0-3.049,0c-0.053,0-0.168-0.059-0.168-0.17 c0-0.226,0-0.45,0-0.619c0-0.116,0.059-0.174,0.168-0.174c0.962,0,1.977,0,2.934,0c0.059,0,0.174,0.058,0.174,0.174 C44.021,38.118,44.021,38.344,44.074,38.568z"/> <path fill="#32475A" d="M48.589,38.568c0,0.111-0.058,0.17-0.114,0.17c-1.016,0-2.029,0-3.045,0c-0.058,0-0.168-0.059-0.168-0.17 c0-0.226-0.058-0.45-0.058-0.619c0-0.116,0.058-0.174,0.11-0.174c0.961,0,1.977,0,2.934,0c0.059,0,0.173,0.058,0.173,0.174 C48.475,38.118,48.531,38.344,48.589,38.568z"/> <path fill="#32475A" d="M52.82,38.568c0,0.111,0,0.17-0.113,0.17c-1.016,0-2.03,0-3.045,0c-0.059,0-0.174-0.059-0.174-0.17 c-0.053-0.226-0.109-0.45-0.168-0.619c0-0.116,0.059-0.174,0.115-0.174c0.957,0,1.973,0,2.935,0c0.056,0,0.168,0.058,0.168,0.174 C52.648,38.118,52.764,38.344,52.82,38.568z"/> <path fill="#32475A" d="M57.332,38.568c0.057,0.111,0,0.17-0.059,0.17c-1.016,0-2.029,0-3.045,0c-0.058,0-0.168-0.059-0.226-0.17 c-0.058-0.226-0.169-0.45-0.226-0.619c-0.059-0.116,0-0.174,0.113-0.174c0.957,0,1.973,0,2.935,0c0.054,0,0.168,0.058,0.222,0.174 C57.163,38.118,57.221,38.344,57.332,38.568z"/> <path fill="#32475A" d="M61.848,38.568c0.053,0.111,0,0.17-0.059,0.17c-1.016,0-2.029,0-3.048,0c-0.054,0-0.169-0.059-0.228-0.17 c-0.111-0.226-0.168-0.45-0.279-0.619c-0.058-0.116,0-0.174,0.059-0.174c0.957,0,1.973,0,2.934,0c0.055,0,0.168,0.058,0.224,0.174 C61.62,38.118,61.732,38.344,61.848,38.568z"/> <path fill="#32475A" d="M66.074,38.568c0.058,0.111,0.058,0.17-0.055,0.17c-1.015,0-2.033,0-3.047,0 c-0.057,0-0.17-0.059-0.228-0.17c-0.11-0.226-0.226-0.45-0.337-0.619c-0.059-0.116,0-0.174,0.058-0.174c0.958,0,1.974,0,2.935,0 c0.054,0,0.168,0.058,0.227,0.174C65.795,38.118,65.963,38.344,66.074,38.568z"/> <path fill="#32475A" d="M70.59,38.568c0.057,0.111,0.057,0.17-0.059,0.17c-1.016,0-2.029,0-3.045,0 c-0.057,0-0.225-0.059-0.282-0.17c-0.168-0.226-0.283-0.45-0.452-0.619c-0.059-0.116-0.059-0.174,0.059-0.174 c0.957,0,1.977,0,2.934,0c0.058,0,0.227,0.058,0.283,0.174C70.307,38.118,70.475,38.344,70.59,38.568z"/> <path fill="#32475A" d="M12.089,39.865c-0.056,0.115-0.169,0.173-0.282,0.173c-1.015,0-2.087,0-3.102,0 c-0.113,0-0.113-0.058-0.057-0.173c0.17-0.223,0.339-0.448,0.507-0.621c0.058-0.11,0.17-0.168,0.284-0.168c1.015,0,2.03,0,3.046,0 c0.056,0,0.113,0.058,0.056,0.168C12.427,39.417,12.259,39.643,12.089,39.865z"/> <path fill="#32475A" d="M16.772,39.865c-0.057,0.115-0.17,0.173-0.226,0.173c-1.015,0-2.087,0-3.102,0 c-0.113,0-0.113-0.058-0.058-0.173c0.113-0.223,0.281-0.448,0.395-0.621c0.057-0.11,0.17-0.168,0.283-0.168 c1.015,0,2.029,0,3.047,0c0.055,0,0.112,0.058,0.055,0.168C17.053,39.417,16.885,39.643,16.772,39.865z"/> <path fill="#32475A" d="M21.172,39.865c-0.057,0.115-0.168,0.173-0.226,0.173c-1.015,0-2.087,0-3.102,0 c-0.113,0-0.113-0.058-0.058-0.173c0.113-0.223,0.226-0.448,0.339-0.621c0.055-0.11,0.168-0.168,0.226-0.168 c1.015,0,2.03,0,3.046,0c0.055,0,0.113,0.058,0.055,0.168C21.341,39.417,21.227,39.643,21.172,39.865z"/> <path fill="#32475A" d="M25.798,39.865c-0.057,0.115-0.113,0.173-0.226,0.173c-1.015,0-2.087,0-3.102,0 c-0.113,0-0.113-0.058-0.113-0.173c0.113-0.223,0.168-0.448,0.281-0.621c0.056-0.11,0.113-0.168,0.226-0.168 c1.015,0,2.03,0,3.046,0c0.055,0,0.113,0.058,0.113,0.168C25.966,39.417,25.911,39.643,25.798,39.865z"/> <path fill="#32475A" d="M30.479,39.865c0,0.115-0.113,0.173-0.168,0.173c-1.017,0-2.087,0-3.104,0 c-0.113,0-0.113-0.058-0.113-0.173c0.058-0.223,0.113-0.448,0.226-0.621c0-0.11,0.113-0.168,0.226-0.168c1.015,0,2.031,0,3.046,0 c0.058,0,0.113,0.058,0.113,0.168C30.593,39.417,30.537,39.643,30.479,39.865z"/> <path fill="#32475A" d="M35.163,39.865c0,0.115-0.113,0.173-0.171,0.173c-1.015,0-2.087,0-3.102,0 c-0.112,0-0.17-0.058-0.112-0.173c0.055-0.223,0.112-0.448,0.112-0.621c0-0.11,0.113-0.168,0.169-0.168c1.015,0,2.031,0,3.046,0 c0.058,0,0.168,0.058,0.113,0.168C35.219,39.417,35.163,39.643,35.163,39.865z"/> <path fill="#32475A" d="M39.505,39.865c0,0.115-0.055,0.173-0.168,0.173c-1.017,0-2.087,0-3.104,0 c-0.113,0-0.168-0.058-0.113-0.173c0-0.223,0.058-0.448,0.058-0.621c0-0.11,0.055-0.168,0.168-0.168c1.017,0,2.031,0,3.046,0 c0.057,0,0.17,0.058,0.17,0.168C39.505,39.417,39.505,39.643,39.505,39.865z"/> <path fill="#32475A" d="M44.189,39.865c0,0.115-0.059,0.173-0.168,0.173c-1.02,0-2.088,0-3.106,0c-0.11,0-0.168-0.058-0.168-0.173 c0-0.223,0-0.448,0-0.621c0-0.11,0.058-0.168,0.168-0.168c1.021,0,2.034,0,3.049,0c0.058,0,0.168,0.058,0.168,0.168 C44.131,39.417,44.131,39.643,44.189,39.865z"/> <path fill="#32475A" d="M48.868,39.865c0,0.115-0.054,0.173-0.11,0.173c-1.015,0-2.088,0-3.104,0 c-0.114,0-0.168-0.058-0.168-0.173c0-0.223-0.057-0.448-0.057-0.621c0-0.11,0.057-0.168,0.109-0.168c1.016,0,2.034,0,3.049,0 c0.059,0,0.169,0.058,0.169,0.168C48.758,39.417,48.814,39.643,48.868,39.865z"/> <path fill="#32475A" d="M53.215,39.865c0,0.115,0,0.173-0.113,0.173c-1.017,0-2.088,0-3.104,0c-0.111,0-0.168-0.058-0.168-0.173 c-0.059-0.223-0.115-0.448-0.169-0.621c0-0.11,0.054-0.168,0.11-0.168c1.016,0,2.029,0,3.049,0c0.054,0,0.168,0.058,0.226,0.168 C53.046,39.417,53.157,39.643,53.215,39.865z"/> <path fill="#32475A" d="M57.895,39.865c0.059,0.115,0,0.173-0.11,0.173c-1.015,0-2.087,0-3.103,0 c-0.115,0-0.168-0.058-0.227-0.173c-0.057-0.223-0.168-0.448-0.227-0.621c-0.058-0.11,0-0.168,0.111-0.168c1.02,0,2.033,0,3.049,0 c0.057,0,0.168,0.058,0.227,0.168C57.672,39.417,57.783,39.643,57.895,39.865z"/> <path fill="#32475A" d="M62.521,39.865c0.058,0.115,0,0.173-0.055,0.173c-1.018,0-2.087,0-3.105,0 c-0.11,0-0.168-0.058-0.221-0.173c-0.115-0.223-0.174-0.448-0.283-0.621c-0.06-0.11,0-0.168,0.057-0.168c1.016,0,2.029,0,3.045,0 c0.057,0,0.168,0.058,0.227,0.168C62.295,39.417,62.409,39.643,62.521,39.865z"/> <path fill="#32475A" d="M66.921,39.865c0.058,0.115,0.058,0.173-0.054,0.173c-1.016,0-2.088,0-3.105,0 c-0.111,0-0.169-0.058-0.223-0.173c-0.114-0.223-0.227-0.448-0.341-0.621c-0.058-0.11,0-0.168,0.058-0.168 c1.016,0,2.029,0,3.044,0c0.058,0,0.228,0.058,0.283,0.168C66.643,39.417,66.752,39.643,66.921,39.865z"/> <path fill="#32475A" d="M71.547,39.865c0.059,0.115,0.059,0.173-0.054,0.173c-1.019,0-2.087,0-3.104,0 c-0.111,0-0.224-0.058-0.281-0.173c-0.168-0.223-0.282-0.448-0.45-0.621c-0.058-0.11-0.058-0.168,0.057-0.168 c1.017,0,2.03,0,3.045,0c0.058,0,0.228,0.058,0.283,0.168C71.268,39.417,71.436,39.643,71.547,39.865z"/> <path fill="#32475A" d="M20.72,41.448c-0.055,0.11-0.168,0.169-0.226,0.169c-4.343,0-8.63,0-12.975,0 c-0.113,0-0.113-0.059-0.056-0.169c0.168-0.226,0.337-0.452,0.508-0.62c0.055-0.116,0.168-0.17,0.281-0.17 c4.231,0,8.461,0,12.693,0c0.113,0,0.113,0.054,0.113,0.17C20.946,40.996,20.833,41.223,20.72,41.448z"/> <path fill="#32475A" d="M25.233,41.448c-0.056,0.11-0.113,0.169-0.226,0.169c-1.07,0-2.143,0-3.215,0 c-0.113,0-0.113-0.059-0.113-0.169c0.113-0.226,0.168-0.452,0.281-0.62c0.057-0.116,0.113-0.17,0.226-0.17 c1.072,0,2.087,0,3.159,0c0.113,0,0.113,0.054,0.113,0.17C25.403,40.996,25.346,41.223,25.233,41.448z"/> <path fill="#32475A" d="M54.004,41.448c0,0.11,0,0.169-0.111,0.169c-9.082,0-18.167,0-27.249,0c-0.113,0-0.113-0.059-0.113-0.169 c0.056-0.226,0.113-0.452,0.226-0.62c0-0.116,0.113-0.17,0.226-0.17c8.855,0,17.769,0,26.626,0c0.111,0,0.168,0.054,0.226,0.17 C53.893,40.996,53.947,41.223,54.004,41.448z"/> <path fill="#778184" d="M53.27,44.496c0.172,0.51-0.224,0.962-0.789,0.962c-8.35,0-16.696,0-25.046,0 c-0.563,0-0.902-0.452-0.789-0.962c0.113-0.448,0.226-0.848,0.395-1.296c0.168-0.511,0.733-0.962,1.241-0.962 c7.785,0,15.569,0,23.354,0c0.567,0,1.073,0.451,1.241,0.962C52.99,43.648,53.157,44.102,53.27,44.496z"/> <path fill="#32475A" d="M58.516,41.448c0.058,0.11,0,0.169-0.111,0.169c-1.071,0-2.146,0-3.217,0c-0.11,0-0.168-0.059-0.227-0.169 c-0.053-0.226-0.168-0.452-0.227-0.62c-0.053-0.116,0-0.17,0.115-0.17c1.072,0,2.088,0,3.159,0c0.11,0,0.168,0.054,0.226,0.17 C58.348,40.996,58.462,41.223,58.516,41.448z"/> <path fill="#32475A" d="M65.627,41.448c0.053,0.11,0,0.169-0.059,0.169c-1.86,0-3.668,0-5.529,0c-0.111,0-0.168-0.059-0.227-0.169 c-0.11-0.226-0.168-0.452-0.279-0.62c-0.057-0.116,0-0.17,0.111-0.17c1.805,0,3.61,0,5.414,0c0.114,0,0.227,0.054,0.227,0.17 C65.4,40.996,65.512,41.223,65.627,41.448z"/> <path fill="#32475A" d="M73.07,41.448c0.06,0.11,0.06,0.169-0.057,0.169c-1.861,0-3.664,0-5.525,0 c-0.115,0-0.227-0.059-0.283-0.169c-0.111-0.226-0.283-0.452-0.395-0.62c-0.059-0.116,0-0.17,0.058-0.17c1.804,0,3.606,0,5.415,0 c0.111,0,0.226,0.054,0.281,0.17C72.787,40.996,72.902,41.223,73.07,41.448z"/> </g> </g>  </g><g id="ProcessOnG1095" transform="matrix(1.0,0.0,0.0,1.0,-20.0,54.875)"><text id="ProcessOnText1096" fill="#000000" font-size="13" x="58.5" y="13.325" font-family="微软雅黑" font-weight="normal" font-style="normal" text-decoration="none" family="微软雅黑" text-anchor="middle" size="13">PC</text></g></g><g id="ProcessOnG1097" transform="matrix(1.0,0.0,0.0,1.0,625.7929371919971,89.46665954589844)" opacity="1.0"><g id="ProcessOnG1099" transform="matrix(0.6352116282105762,0.0,0.0,0.6973684210526315,0.0,0.0)"> <g> <path fill="#31333D" d="M53.2,76H3.8C1.672,76,0,74.252,0,72.2V3.8C0,1.672,1.748,0,3.8,0h49.4C55.327,0,57,1.748,57,3.8v68.4 C57,74.252,55.252,76,53.2,76z"/> <rect x="2.813" y="8.208" fill="#FFFFFF" width="51.375" height="59.205"/> <circle fill="#4C5260" cx="28.5" cy="71.517" r="2.583"/> <circle fill="#4C5260" cx="28.5" cy="4.18" r="0.76"/> </g>  </g><g id="ProcessOnG1100" transform="matrix(1.0,0.0,0.0,1.0,-20.0,59.875)"><text id="ProcessOnText1101" fill="#000000" font-size="13" x="37.10353140400142" y="13.325" font-family="微软雅黑" font-weight="normal" font-style="normal" text-decoration="none" family="微软雅黑" text-anchor="middle" size="13">设备</text></g></g><g id="ProcessOnG1102" transform="matrix(1.0,0.0,0.0,1.0,383.40003204345703,758.4083404541016)" opacity="1.0"><path id="ProcessOnPath1103" d="M0.0 0.0L324.71665954589844 0.0L324.71665954589844 28.51666259765625L0.0 28.51666259765625Z" stroke="#323232" stroke-width="2.0" stroke-dasharray="none" opacity="1.0" fill="#ffcccc"/><g id="ProcessOnG1104" transform="matrix(1.0,0.0,0.0,1.0,10.0,6.133331298828125)"><text id="ProcessOnText1105" fill="#000000" font-size="13" x="151.35832977294922" y="13.325" font-family="微软雅黑" font-weight="normal" font-style="normal" text-decoration="none" family="微软雅黑" text-anchor="middle" size="13">REST API Gateway</text></g></g><g id="ProcessOnG1106" transform="matrix(1.0,0.0,0.0,1.0,580.8666915893555,407.99168395996094)" opacity="1.0"><path id="ProcessOnPath1107" d="M0.0 4.0Q0.0 0.0 4.0 0.0L77.13330841064453 0.0Q81.13330841064453 0.0 81.13330841064453 4.0L81.13330841064453 56.0Q81.13330841064453 60.0 77.13330841064453 60.0L4.0 60.0Q0.0 60.0 0.0 56.0Z" stroke="#323232" stroke-width="1.0" stroke-dasharray="none" opacity="1.0" fill="#cce5ff"/><path id="ProcessOnPath1108" d="M0.0 30.0L81.13330841064453 30.0" stroke="#323232" stroke-width="1.0" stroke-dasharray="none" opacity="1.0" fill="none"/><path id="ProcessOnPath1109" d="M0.0 0.0L81.13330841064453 0.0L81.13330841064453 60.0L0.0 60.0Z" stroke="none" stroke-width="0.0" stroke-dasharray="none" opacity="1.0" fill="none"/><g id="ProcessOnG1110" transform="matrix(1.0,0.0,0.0,1.0,10.0,7.5)"><text id="ProcessOnText1111" fill="#000000" font-size="12" x="29.566654205322266" y="12.3" font-family="微软雅黑" font-weight="bold" font-style="normal" text-decoration="none" family="微软雅黑" text-anchor="middle" size="12">Https协议</text></g><g id="ProcessOnG1112" transform="matrix(1.0,0.0,0.0,1.0,10.0,37.5)"><text id="ProcessOnText1113" fill="#000000" font-size="12" x="29.566654205322266" y="12.3" font-family="微软雅黑" font-weight="bold" font-style="normal" text-decoration="none" family="微软雅黑" text-anchor="middle" size="12">web服务</text></g></g><g id="ProcessOnG1114" transform="matrix(1.0,0.0,0.0,1.0,436.4333724975586,407.99168395996094)" opacity="1.0"><path id="ProcessOnPath1115" d="M0.0 4.0Q0.0 0.0 4.0 0.0L70.21665954589844 0.0Q74.21665954589844 0.0 74.21665954589844 4.0L74.21665954589844 56.0Q74.21665954589844 60.0 70.21665954589844 60.0L4.0 60.0Q0.0 60.0 0.0 56.0Z" stroke="#323232" stroke-width="1.0" stroke-dasharray="none" opacity="1.0" fill="#cce5ff"/><path id="ProcessOnPath1116" d="M0.0 30.0L74.21665954589844 30.0" stroke="#323232" stroke-width="1.0" stroke-dasharray="none" opacity="1.0" fill="none"/><path id="ProcessOnPath1117" d="M0.0 0.0L74.21665954589844 0.0L74.21665954589844 60.0L0.0 60.0Z" stroke="none" stroke-width="0.0" stroke-dasharray="none" opacity="1.0" fill="none"/><g id="ProcessOnG1118" transform="matrix(1.0,0.0,0.0,1.0,10.0,7.5)"><text id="ProcessOnText1119" fill="#000000" font-size="12" x="26.10832977294922" y="12.3" font-family="微软雅黑" font-weight="bold" font-style="normal" text-decoration="none" family="微软雅黑" text-anchor="middle" size="12">Http协议</text></g><g id="ProcessOnG1120" transform="matrix(1.0,0.0,0.0,1.0,10.0,37.5)"><text id="ProcessOnText1121" fill="#000000" font-size="12" x="26.10832977294922" y="12.3" font-family="微软雅黑" font-weight="bold" font-style="normal" text-decoration="none" family="微软雅黑" text-anchor="middle" size="12">web服务</text></g></g><g id="ProcessOnG1122" transform="matrix(1.0,0.0,0.0,1.0,363.40003204345703,353.2208557128906)" opacity="1.0"><path id="ProcessOnPath1123" d="M0.0 0.0L364.71665954589844 0.0L364.71665954589844 129.54165649414062L0.0 129.54165649414062Z" stroke="#323232" stroke-width="2.0" stroke-dasharray="none" opacity="1.0" fill="none"/><path id="ProcessOnPath1124" d="M0.0 0.0L364.71665954589844 0.0L364.71665954589844 40.0L0.0 40.0Z" stroke="#323232" stroke-width="2.0" stroke-dasharray="none" opacity="1.0" fill="#cce5ff"/><g id="ProcessOnG1125" transform="matrix(1.0,0.0,0.0,1.0,10.0,0.0)"><text id="ProcessOnText1126" fill="#000000" font-size="16" x="0.0" y="16.4" font-family="微软雅黑" font-weight="normal" font-style="normal" text-decoration="none" family="微软雅黑" text-anchor="start" size="16">系统Web通信协议</text></g></g><g id="ProcessOnG1127" transform="matrix(1.0,0.0,0.0,1.0,363.40003204345703,534.2416839599609)" opacity="1.0"><path id="ProcessOnPath1128" d="M0.0 0.0L364.71665954589844 0.0L364.71665954589844 142.37498474121094L0.0 142.37498474121094Z" stroke="#323232" stroke-width="2.0" stroke-dasharray="none" opacity="1.0" fill="none"/><path id="ProcessOnPath1129" d="M0.0 0.0L364.71665954589844 0.0L364.71665954589844 40.0L0.0 40.0Z" stroke="#323232" stroke-width="2.0" stroke-dasharray="none" opacity="1.0" fill="#99ccff"/><g id="ProcessOnG1130" transform="matrix(1.0,0.0,0.0,1.0,10.0,0.0)"><text id="ProcessOnText1131" fill="#000000" font-size="16" x="0.0" y="16.4" font-family="微软雅黑" font-weight="normal" font-style="normal" text-decoration="none" family="微软雅黑" text-anchor="start" size="16">业务服务模块    </text></g></g><g id="ProcessOnG1132" transform="matrix(1.0,0.0,0.0,1.0,510.65003204345703,581.5666809082031)" opacity="1.0"><path id="ProcessOnPath1133" d="M0.0 6.0Q0.0 0.0 6.0 0.0L64.21665954589844 0.0Q70.21665954589844 0.0 70.21665954589844 6.0L70.21665954589844 77.21665954589844Q70.21665954589844 83.21665954589844 64.21665954589844 83.21665954589844L6.0 83.21665954589844Q0.0 83.21665954589844 0.0 77.21665954589844L0.0 6.0Z" stroke="none" stroke-width="0.0" stroke-dasharray="none" opacity="1.0" fill="#99ccff"/><path id="ProcessOnPath1134" d="M0.0 58.21665954589844L70.21665954589844 58.21665954589844L70.21665954589844 77.21665954589844Q70.21665954589844 83.21665954589844 64.21665954589844 83.21665954589844L6.0 83.21665954589844Q0.0 83.21665954589844 0.0 77.21665954589844Z" stroke="none" stroke-width="0.0" stroke-dasharray="none" opacity="1.0" fill="#679acd"/><path id="ProcessOnPath1135" d="M0.0 25.0L70.21665954589844 25.0" stroke="#323232" stroke-width="2.0" stroke-dasharray="none" opacity="1.0" fill="#99ccff"/><path id="ProcessOnPath1136" d="M0.0 58.21665954589844L70.21665954589844 58.21665954589844" stroke="#323232" stroke-width="2.0" stroke-dasharray="none" opacity="1.0" fill="#99ccff"/><path id="ProcessOnPath1137" d="M0.0 6.0Q0.0 0.0 6.0 0.0L64.21665954589844 0.0Q70.21665954589844 0.0 70.21665954589844 6.0L70.21665954589844 77.21665954589844Q70.21665954589844 83.21665954589844 64.21665954589844 83.21665954589844L6.0 83.21665954589844Q0.0 83.21665954589844 0.0 77.21665954589844L0.0 6.0Z" stroke="#323232" stroke-width="2.0" stroke-dasharray="none" opacity="1.0" fill="none"/><g id="ProcessOnG1138" transform="matrix(1.0,0.0,0.0,1.0,5.0,33.48332977294922)"><text id="ProcessOnText1139" fill="#000000" font-size="13" x="29.10832977294922" y="13.325" font-family="微软雅黑" font-weight="normal" font-style="normal" text-decoration="none" family="微软雅黑" text-anchor="middle" size="13">MTV架构</text></g><g id="ProcessOnG1140" transform="matrix(1.0,0.0,0.0,1.0,5.0,4.375)"><text id="ProcessOnText1141" fill="#000000" font-size="13" x="29.10832977294922" y="13.325" font-family="微软雅黑" font-weight="normal" font-style="normal" text-decoration="none" family="微软雅黑" text-anchor="middle" size="13">Django</text></g><g id="ProcessOnG1142" transform="matrix(1.0,0.0,0.0,1.0,5.0,62.59165954589844)"><text id="ProcessOnText1143" fill="#000000" font-size="13" x="29.10832977294922" y="13.325" font-family="微软雅黑" font-weight="normal" font-style="normal" text-decoration="none" family="微软雅黑" text-anchor="middle" size="13">架构模板</text></g></g><g id="ProcessOnG1144" transform="matrix(1.0,0.0,0.0,1.0,376.0666809082031,581.5666809082031)" opacity="1.0"><path id="ProcessOnPath1145" d="M0.0 6.0Q0.0 0.0 6.0 0.0L64.21665954589844 0.0Q70.21665954589844 0.0 70.21665954589844 6.0L70.21665954589844 77.21665954589844Q70.21665954589844 83.21665954589844 64.21665954589844 83.21665954589844L6.0 83.21665954589844Q0.0 83.21665954589844 0.0 77.21665954589844L0.0 6.0Z" stroke="none" stroke-width="0.0" stroke-dasharray="none" opacity="1.0" fill="#99ccff"/><path id="ProcessOnPath1146" d="M0.0 58.21665954589844L70.21665954589844 58.21665954589844L70.21665954589844 77.21665954589844Q70.21665954589844 83.21665954589844 64.21665954589844 83.21665954589844L6.0 83.21665954589844Q0.0 83.21665954589844 0.0 77.21665954589844Z" stroke="none" stroke-width="0.0" stroke-dasharray="none" opacity="1.0" fill="#679acd"/><path id="ProcessOnPath1147" d="M0.0 25.0L70.21665954589844 25.0" stroke="#323232" stroke-width="2.0" stroke-dasharray="none" opacity="1.0" fill="#99ccff"/><path id="ProcessOnPath1148" d="M0.0 58.21665954589844L70.21665954589844 58.21665954589844" stroke="#323232" stroke-width="2.0" stroke-dasharray="none" opacity="1.0" fill="#99ccff"/><path id="ProcessOnPath1149" d="M0.0 6.0Q0.0 0.0 6.0 0.0L64.21665954589844 0.0Q70.21665954589844 0.0 70.21665954589844 6.0L70.21665954589844 77.21665954589844Q70.21665954589844 83.21665954589844 64.21665954589844 83.21665954589844L6.0 83.21665954589844Q0.0 83.21665954589844 0.0 77.21665954589844L0.0 6.0Z" stroke="#323232" stroke-width="2.0" stroke-dasharray="none" opacity="1.0" fill="none"/><g id="ProcessOnG1150" transform="matrix(1.0,0.0,0.0,1.0,5.0,33.48332977294922)"><text id="ProcessOnText1151" fill="#000000" font-size="13" x="29.10832977294922" y="13.325" font-family="微软雅黑" font-weight="normal" font-style="normal" text-decoration="none" family="微软雅黑" text-anchor="middle" size="13">基础服务</text></g><g id="ProcessOnG1152" transform="matrix(1.0,0.0,0.0,1.0,5.0,4.375)"><text id="ProcessOnText1153" fill="#000000" font-size="13" x="29.10832977294922" y="13.325" font-family="微软雅黑" font-weight="normal" font-style="normal" text-decoration="none" family="微软雅黑" text-anchor="middle" size="13">Python3</text></g><g id="ProcessOnG1154" transform="matrix(1.0,0.0,0.0,1.0,5.0,62.59165954589844)"><text id="ProcessOnText1155" fill="#000000" font-size="13" x="29.10832977294922" y="13.325" font-family="微软雅黑" font-weight="normal" font-style="normal" text-decoration="none" family="微软雅黑" text-anchor="middle" size="13">基础接口</text></g></g><g id="ProcessOnG1156" transform="matrix(1.0,0.0,0.0,1.0,751.0,533.9916839599609)" opacity="1.0"><path id="ProcessOnPath1157" d="M0.0 0.0L80.0 0.0L80.0 35.0L0.0 35.0Z" stroke="#323232" stroke-width="2.0" stroke-dasharray="none" opacity="1.0" fill="#ffb366"/><g id="ProcessOnG1158" transform="matrix(1.0,0.0,0.0,1.0,10.0,9.375)"><text id="ProcessOnText1159" fill="#000000" font-size="13" x="29.0" y="13.325" font-family="微软雅黑" font-weight="normal" font-style="normal" text-decoration="none" family="微软雅黑" text-anchor="middle" size="13">统计管理</text></g></g><g id="ProcessOnG1160" transform="matrix(1.0,0.0,0.0,1.0,728.1166915893555,993.928129196167)" opacity="1.0"><g id="ProcessOnG1162" transform="matrix(0.6791109212239583,0.0,0.0,0.5900417836507161,0.0,0.0)"> <g id="Layer_1"> <polygon fill="#19486F" points="33.649,21.831 1.541,21.831 1.541,18.75 17.591,9.632 33.649,18.75 "/> <polygon fill="#19486F" points="73.459,21.831 41.359,21.831 41.359,18.75 57.409,9.632 73.459,18.75 "/> <polygon fill="#19486F" points="33.649,48.547 1.541,48.547 1.541,45.334 17.591,36.341 33.649,45.334 "/> <polygon fill="#19486F" points="73.459,48.547 41.359,48.547 41.359,45.334 57.409,36.341 73.459,45.334 "/> <polygon fill="#19486F" points="33.649,75 1.541,75 1.541,71.919 17.591,62.793 33.649,71.919 "/> <polygon fill="#19486F" points="73.459,75 41.359,75 41.359,71.919 57.409,62.793 73.459,71.919 "/> <rect x="41.359" y="53.036" fill="#2E73B8" width="32.1" height="18.883"/> <rect x="41.359" y="26.452" fill="#2E73B8" width="32.1" height="18.882"/> <rect x="41.359" fill="#2E73B8" width="32.1" height="18.882"/> <rect x="1.541" y="53.036" fill="#2E73B8" width="32.108" height="18.883"/> <rect x="1.541" y="26.452" fill="#2E73B8" width="32.108" height="18.882"/> <rect x="1.541" fill="#2E73B8" width="32.108" height="18.882"/> <path fill="#FFFFFF" d="M17.591,55.985c3.548,0,6.427,2.887,6.427,6.427c0,3.556-2.879,6.427-6.427,6.427 c-3.539,0-6.418-2.871-6.418-6.427C11.173,58.872,14.052,55.985,17.591,55.985z"/> <path fill="#FFFFFF" d="M17.591,29.541c3.548,0,6.427,2.871,6.427,6.418c0,3.54-2.879,6.426-6.427,6.426 c-3.539,0-6.418-2.887-6.418-6.426C11.173,32.412,14.052,29.541,17.591,29.541z"/> <path fill="#FFFFFF" d="M17.591,2.957c3.548,0,6.427,2.871,6.427,6.419c0,3.547-2.879,6.418-6.427,6.418 c-3.539,0-6.418-2.871-6.418-6.418C11.173,5.827,14.052,2.957,17.591,2.957z"/> </g>  </g><g id="ProcessOnG1163" transform="matrix(1.0,0.0,0.0,1.0,-20.0,51.12813377380371)"><text id="ProcessOnText1164" fill="#000000" font-size="13" x="44.46665954589844" y="13.325" font-family="微软雅黑" font-weight="normal" font-style="normal" text-decoration="none" family="微软雅黑" text-anchor="middle" size="13">文件存储</text></g></g><g id="ProcessOnG1165" transform="matrix(1.0,0.0,0.0,1.0,301.78334045410156,244.60832977294922)" opacity="1.0"><path id="ProcessOnPath1166" d="M0.0 0.0L137.75 0.0L137.75 39.5L0.0 39.5Z" stroke="#323232" stroke-width="2.0" stroke-dasharray="none" opacity="1.0" fill="#99ccff"/><g id="ProcessOnG1167" transform="matrix(1.0,0.0,0.0,1.0,10.0,11.625)"><text id="ProcessOnText1168" fill="#000000" font-size="13" x="57.875" y="13.325" font-family="微软雅黑" font-weight="normal" font-style="normal" text-decoration="none" family="微软雅黑" text-anchor="middle" size="13">HTML5</text></g></g><g id="ProcessOnG1169" transform="matrix(1.0,0.0,0.0,1.0,333.0,993.928129196167)" opacity="1.0"><g id="ProcessOnG1171" transform="matrix(0.7066666666666667,0.0,0.0,0.6703334554036459,0.0,0.0)"> <g id="Layer_1"> <path fill="#19486F" d="M14.362,2.926h46.277c6.648,0,12.101,5.452,12.101,12.101v2.925v17.42 c-2.394-1.196-7.58-2.526-15.425-2.526c-3.458,0-6.384,0.266-8.91,0.665c-5.187,0.931-7.979,2.393-7.979,3.324v34.574 c0,0.532,0.797,1.33,2.261,2.127h-2.261H14.362c-6.649,0-12.101-5.451-12.101-12.101V17.952v-2.925 C2.261,8.378,7.713,2.926,14.362,2.926z"/> <path fill="#2E73B8" d="M14.362,0h46.277c6.648,0,12.101,5.452,12.101,12.101v2.926v17.42c-2.394-1.197-7.58-2.527-15.425-2.527 c-3.458,0-6.384,0.266-8.91,0.665c-5.187,0.931-7.979,2.394-7.979,3.324v34.574c0,0.532,0.797,1.33,2.261,2.129h-2.261H14.362 c-6.649,0-12.101-5.453-12.101-12.103V15.027v-2.926C2.261,5.452,7.713,0,14.362,0z"/> <path fill="#19486F" d="M58.51,39.229c-2.926,0-5.451,0.267-7.445,0.532c-2.527,0.398-6.649-0.532-6.649-0.532s0,3.059,0,3.324 c0,0.799,2.261,1.995,6.649,2.794c1.994,0.398,4.52,0.53,7.445,0.53c9.177,0,14.229-2.127,14.229-3.324c0-0.398,0-3.324,0-3.324 S65.026,39.229,58.51,39.229z"/> <path fill="#19486F" d="M44.148,48.936v22.74c0,1.195,3.99,3.324,13.431,3.324c5.187,0,9.176-0.665,11.703-1.33 c1.861-0.665,3.19-1.329,3.324-1.862V49.202c-2.793,1.729-8.511,2.659-14.097,2.659h-0.398c-0.532,0-1.197,0-1.729,0h-0.266 c-0.533,0-0.932,0-1.463-0.133c-0.266,0-0.532,0-0.664,0c-0.4,0-0.799,0-1.065-0.134c-0.265,0-0.398,0-0.665-0.132 c-0.398,0-0.797-0.133-1.195-0.133C48.006,50.798,45.611,50,44.148,48.936z"/> <path fill="#2E73B8" d="M58.51,35.904c-2.926,0-5.451,0.267-7.445,0.533c-4.389,0.665-6.649,1.994-6.649,2.792 c0,0.799,2.261,1.994,6.649,2.793c1.994,0.399,4.52,0.531,7.445,0.531c9.177,0,14.229-2.127,14.229-3.324 C72.739,38.032,67.687,35.904,58.51,35.904z"/> <path fill="#2E73B8" d="M44.148,45.611v22.74c0,1.195,3.99,3.324,13.431,3.324c5.187,0,9.176-0.665,11.703-1.33 c1.861-0.665,3.19-1.33,3.324-1.862V45.877c-2.793,1.729-8.511,2.66-14.097,2.66h-0.398c-0.532,0-1.197,0-1.729,0h-0.266 c-0.533,0-0.932,0-1.463-0.133c-0.266,0-0.532,0-0.664,0c-0.4,0-0.799,0-1.065-0.134c-0.265,0-0.398,0-0.665-0.132 c-0.398,0-0.797-0.133-1.195-0.133C48.006,47.474,45.611,46.676,44.148,45.611z"/> <path fill="#19486F" d="M14.362,70.479h28.325v2.926H14.362c-6.649,0-12.101-5.452-12.101-12.101v-2.926 C2.261,65.026,7.713,70.479,14.362,70.479z"/> <g> <path fill="#FFFFFF" d="M10.638,8.378h4.123l1.995,9.707l0,0l1.995-9.707h4.123v13.696h-2.526V11.038l0,0l-2.394,11.037h-2.127 l-2.394-11.037l0,0v11.037h-2.526V8.378H10.638z"/> <path fill="#FFFFFF" d="M26.596,17.819v0.399c0,1.33,0.399,2.128,1.862,2.128c0.797,0,1.595-0.532,1.595-1.729 c0-1.196-0.665-1.728-2.526-2.393c-2.527-0.798-3.591-1.862-3.591-4.123c0-2.66,1.596-3.989,4.255-3.989 c2.526,0,4.256,1.064,4.256,3.724v0.399h-2.66c0-1.33-0.399-1.995-1.463-1.995c-1.197,0-1.596,0.798-1.596,1.596 c0,0.797,0.267,1.33,1.463,1.862l2.128,0.93c2.128,0.931,2.66,1.995,2.66,3.591c0,2.926-1.729,4.255-4.788,4.255 c-3.191,0-4.388-1.463-4.388-3.989v-0.532h2.792V17.819z"/> <path fill="#FFFFFF" d="M40.159,17.819v0.399c0,1.33,0.399,2.128,1.862,2.128c0.798,0,1.595-0.532,1.595-1.729 c0-1.196-0.665-1.728-2.525-2.393c-2.527-0.798-3.591-1.862-3.591-4.123c0-2.66,1.596-3.989,4.256-3.989 c2.525,0,4.255,1.064,4.255,3.724v0.399h-2.659c0-1.33-0.4-1.995-1.464-1.995c-1.195,0-1.596,0.798-1.596,1.596 c0,0.797,0.267,1.33,1.464,1.862l2.127,0.93c2.128,0.931,2.659,1.995,2.659,3.591c0,2.926-1.729,4.255-4.786,4.255 c-3.192,0-4.389-1.463-4.389-3.989v-0.532h2.792V17.819z"/> <path fill="#FFFFFF" d="M55.452,23.804l-1.596-1.729c-0.267,0.133-0.531,0.133-0.798,0.267c-0.267,0-0.665,0-0.931,0 c-4.122,0-4.654-2.926-4.654-7.181c0-4.256,0.532-7.182,4.654-7.182c4.121,0,4.654,2.926,4.654,7.182 c0,2.393-0.133,4.255-1.064,5.584l1.463,1.463L55.452,23.804z M51.995,20.346c1.595,0,1.861-1.463,1.861-5.054 c0-3.723-0.267-5.053-1.861-5.053c-1.596,0-1.862,1.463-1.862,5.053C50.133,18.883,50.399,20.346,51.995,20.346z"/> <path fill="#FFFFFF" d="M57.846,22.074V8.378h2.793v11.437h4.919v2.26H57.846z"/> </g> <g> <path fill="#FFFFFF" d="M50.798,50.798h4.388l3.059,12.899l0,0l3.06-12.899h4.254v17.42h-2.659V53.856l0,0l-3.457,14.495h-2.394 L53.59,53.856l0,0v14.495h-2.659V50.798H50.798z"/> </g> </g>  </g><g id="ProcessOnG1172" transform="matrix(1.0,0.0,0.0,1.0,-20.0,57.15000915527344)"><text id="ProcessOnText1173" fill="#000000" font-size="13" x="45.5" y="13.325" font-family="微软雅黑" font-weight="normal" font-style="normal" text-decoration="none" family="微软雅黑" text-anchor="middle" size="13">MySQL数据库</text></g></g><g id="ProcessOnG1174" transform="matrix(1.0,0.0,0.0,1.0,518.7583618164062,993.928129196167)" opacity="1.0"><g id="ProcessOnG1176" transform="matrix(0.72,0.0,0.0,0.6703334554036459,0.0,0.0)"> <g id="Layer_1"> <path fill="#19486F" d="M61.057,75H13.944C7.175,75,1.625,69.448,1.625,62.68V15.704c0-6.769,5.55-12.32,12.319-12.32h47.112 c6.769,0,12.318,5.551,12.318,12.32v47.112C73.375,69.585,67.825,75,61.057,75z"/> <path fill="#2E73B8" d="M61.057,71.75H13.944c-6.769,0-12.319-5.55-12.319-12.318V12.319C1.625,5.551,7.175,0,13.944,0h47.112 c6.769,0,12.318,5.551,12.318,12.319v47.112C73.375,66.2,67.825,71.75,61.057,71.75z"/> <g> <polygon fill="#FFFFFF" points="63.222,22.337 63.222,16.922 56.453,16.922 56.453,10.153 51.038,10.153 51.038,16.922 48.33,16.922 48.33,10.153 42.915,10.153 42.915,16.922 40.208,16.922 40.208,10.153 34.792,10.153 34.792,16.922 32.085,16.922 32.085,10.153 26.67,10.153 26.67,16.922 23.962,16.922 23.962,10.153 18.547,10.153 18.547,16.922 11.778,16.922 11.778,22.337 18.547,22.337 18.547,25.045 11.778,25.045 11.778,30.46 18.547,30.46 18.547,33.167 11.778,33.167 11.778,38.583 18.547,38.583 18.547,41.29 11.778,41.29 11.778,46.705 18.547,46.705 18.547,49.413 11.778,49.413 11.778,54.828 18.547,54.828 18.547,61.597 23.962,61.597 23.962,54.828 26.67,54.828 26.67,61.597 32.085,61.597 32.085,54.828 34.792,54.828 34.792,61.597 40.208,61.597 40.208,54.828 42.915,54.828 42.915,61.597 48.33,61.597 48.33,54.828 51.038,54.828 51.038,61.597 56.453,61.597 56.453,54.828 63.222,54.828 63.222,49.413 56.453,49.413 56.453,46.705 63.222,46.705 63.222,41.29 56.453,41.29 56.453,38.583 63.222,38.583 63.222,33.167 56.453,33.167 56.453,30.46 63.222,30.46 63.222,25.045 56.453,25.045 56.453,22.337 "/> <path fill="#2E73B8" d="M25.316,25.045h7.04l5.28,14.892l0,0l4.873-14.892h7.175v21.66h-5.415V31.814h0.542l-5.415,14.891h-3.791 L30.19,31.814h0.541v14.891h-5.415V25.045z"/> </g> </g>  </g><g id="ProcessOnG1177" transform="matrix(1.0,0.0,0.0,1.0,-20.0,57.15000915527344)"><text id="ProcessOnText1178" fill="#000000" font-size="13" x="46.0" y="13.325" font-family="微软雅黑" font-weight="normal" font-style="normal" text-decoration="none" family="微软雅黑" text-anchor="middle" size="13">MemoryCache</text></g></g><g id="ProcessOnG1179" transform="matrix(1.0,0.0,0.0,1.0,469.28334045410156,244.60832977294922)" opacity="1.0"><path id="ProcessOnPath1180" d="M0.0 0.0L137.75 0.0L137.75 39.5L0.0 39.5Z" stroke="#323232" stroke-width="2.0" stroke-dasharray="none" opacity="1.0" fill="#99ccff"/><g id="ProcessOnG1181" transform="matrix(1.0,0.0,0.0,1.0,10.0,11.625)"><text id="ProcessOnText1182" fill="#000000" font-size="13" x="57.875" y="13.325" font-family="微软雅黑" font-weight="normal" font-style="normal" text-decoration="none" family="微软雅黑" text-anchor="middle" size="13">CSS</text></g></g><g id="ProcessOnG1183" transform="matrix(1.0,0.0,0.0,1.0,641.3000106811523,244.60832977294922)" opacity="1.0"><path id="ProcessOnPath1184" d="M0.0 0.0L137.75 0.0L137.75 39.5L0.0 39.5Z" stroke="#323232" stroke-width="2.0" stroke-dasharray="none" opacity="1.0" fill="#99ccff"/><g id="ProcessOnG1185" transform="matrix(1.0,0.0,0.0,1.0,10.0,11.625)"><text id="ProcessOnText1186" fill="#000000" font-size="13" x="57.875" y="13.325" font-family="微软雅黑" font-weight="normal" font-style="normal" text-decoration="none" family="微软雅黑" text-anchor="middle" size="13">javascript</text></g></g><g id="ProcessOnG1187" transform="matrix(1.0,0.0,0.0,1.0,390.53334045410156,167.0)" opacity="1.0"><path id="ProcessOnPath1188" d="M13.233329772949219 0.0L26.466659545898438 13.233329772949219L17.732661895751953 13.233329772949219L17.732661895751953 53.76667022705078L26.466659545898438 53.76667022705078L13.233329772949219 67.0L0.0 53.76667022705078L8.733997650146485 53.76667022705078L8.733997650146485 13.233329772949219L0.0 13.233329772949219L13.233329772949219 0.0Z" stroke="#323232" stroke-width="2.0" stroke-dasharray="none" opacity="1.0" fill="#ff0000"/></g><g id="ProcessOnG1189" transform="matrix(1.0,0.0,0.0,1.0,614.8333511352539,167.0)" opacity="1.0"><path id="ProcessOnPath1190" d="M13.233329772949219 0.0L26.466659545898438 13.233329772949219L17.732661895751953 13.233329772949219L17.732661895751953 53.76667022705078L26.466659545898438 53.76667022705078L13.233329772949219 67.0L0.0 53.76667022705078L8.733997650146485 53.76667022705078L8.733997650146485 13.233329772949219L0.0 13.233329772949219L13.233329772949219 0.0Z" stroke="#323232" stroke-width="2.0" stroke-dasharray="none" opacity="1.0" fill="#ff0000"/></g><g id="ProcessOnG1191" transform="matrix(1.0,0.0,0.0,1.0,517.0333404541016,293.0)" opacity="1.0"><path id="ProcessOnPath1192" d="M13.233329772949219 0.0L26.466659545898438 13.233329772949219L17.732661895751953 13.233329772949219L17.732661895751953 53.76667022705078L26.466659545898438 53.76667022705078L13.233329772949219 67.0L0.0 53.76667022705078L8.733997650146485 53.76667022705078L8.733997650146485 13.233329772949219L0.0 13.233329772949219L13.233329772949219 0.0Z" stroke="#323232" stroke-width="2.0" stroke-dasharray="none" opacity="1.0" fill="#ff0000"/></g><g id="ProcessOnG1193" transform="matrix(1.0,0.0,0.0,1.0,280.0,643.9250183105469)" opacity="1.0"><path id="ProcessOnPath1194" d="M0.0 0.0L53.0 0.0L53.0 29.058319091796875L0.0 29.058319091796875Z" stroke="#323232" stroke-width="2.0" stroke-dasharray="none" opacity="1.0" fill="#ff9999"/><g id="ProcessOnG1195" transform="matrix(1.0,0.0,0.0,1.0,10.0,6.4041595458984375)"><text id="ProcessOnText1196" fill="#000000" font-size="13" x="15.5" y="13.325" font-family="微软雅黑" font-weight="normal" font-style="normal" text-decoration="none" family="微软雅黑" text-anchor="middle" size="13">……</text></g></g><g id="ProcessOnG1197" transform="matrix(1.0,0.0,0.0,1.0,751.0,607.5250091552734)" opacity="1.0"><path id="ProcessOnPath1198" d="M0.0 0.0L80.0 0.0L80.0 29.0L0.0 29.0Z" stroke="#323232" stroke-width="2.0" stroke-dasharray="none" opacity="1.0" fill="#ffb366"/><g id="ProcessOnG1199" transform="matrix(1.0,0.0,0.0,1.0,10.0,6.375)"><text id="ProcessOnText1200" fill="#000000" font-size="13" x="29.0" y="13.325" font-family="微软雅黑" font-weight="normal" font-style="normal" text-decoration="none" family="微软雅黑" text-anchor="middle" size="13">公告管理</text></g></g><g id="ProcessOnG1201" transform="matrix(1.0,0.0,0.0,1.0,277.0,601.3499984741211)" opacity="1.0"><path id="ProcessOnPath1202" d="M0.0 0.0L59.0 0.0L59.0 32.30000305175781L0.0 32.30000305175781Z" stroke="#323232" stroke-width="2.0" stroke-dasharray="none" opacity="1.0" fill="#ff9999"/><g id="ProcessOnG1203" transform="matrix(1.0,0.0,0.0,1.0,10.0,-0.09999847412109375)"><text id="ProcessOnText1204" fill="#000000" font-size="13" x="18.5" y="13.325" font-family="微软雅黑" font-weight="normal" font-style="normal" text-decoration="none" family="微软雅黑" text-anchor="middle" size="13">传文</text><text id="ProcessOnText1205" fill="#000000" font-size="13" x="18.5" y="29.575" font-family="微软雅黑" font-weight="normal" font-style="normal" text-decoration="none" family="微软雅黑" text-anchor="middle" size="13">件</text></g></g><g id="ProcessOnG1206" transform="matrix(1.0,0.0,0.0,1.0,751.0,644.0)" opacity="1.0"><path id="ProcessOnPath1207" d="M0.0 0.0L80.0 0.0L80.0 29.0L0.0 29.0Z" stroke="#323232" stroke-width="2.0" stroke-dasharray="none" opacity="1.0" fill="#ffb366"/><g id="ProcessOnG1208" transform="matrix(1.0,0.0,0.0,1.0,10.0,6.375)"><text id="ProcessOnText1209" fill="#000000" font-size="13" x="29.0" y="13.325" font-family="微软雅黑" font-weight="normal" font-style="normal" text-decoration="none" family="微软雅黑" text-anchor="middle" size="13">......</text></g></g><g id="ProcessOnG1210" transform="matrix(1.0,0.0,0.0,1.0,883.0,653.6166687011719)" opacity="1.0"><path id="ProcessOnPath1211" d="M0.0 0.0L110.0 0.0L110.0 200.03335571289062L0.0 200.03335571289062Z" stroke="#323232" stroke-width="2.0" stroke-dasharray="none" opacity="1.0" fill="none"/><path id="ProcessOnPath1212" d="M0.0 0.0L110.0 0.0L110.0 40.0L0.0 40.0Z" stroke="#323232" stroke-width="2.0" stroke-dasharray="none" opacity="1.0" fill="#00cc00"/><g id="ProcessOnG1213" transform="matrix(1.0,0.0,0.0,1.0,10.0,10.0)"><text id="ProcessOnText1214" fill="#000000" font-size="16" x="44.0" y="16.4" font-family="微软雅黑" font-weight="normal" font-style="normal" text-decoration="none" family="微软雅黑" text-anchor="middle" size="16">微信端</text></g></g><g id="ProcessOnG1215" transform="matrix(1.0,0.0,0.0,1.0,900.3287671232877,725.0637636964924)" opacity="1.0"><path id="ProcessOnPath1216" d="M0.0 0.0L75.34246575342465 0.0L75.34246575342465 36.14548825979831L0.0 36.14548825979831L0.0 0.0Z" stroke="#0b6cc3" stroke-width="2.0" stroke-dasharray="none" opacity="1.0" fill="url(#ProcessOnLinearGradient1217)"/><g id="ProcessOnG1220" transform="matrix(1.0,0.0,0.0,1.0,10.0,9.947744129899156)"><text id="ProcessOnText1221" fill="#000000" font-size="13" x="26.671232876712324" y="13.325" font-family="微软雅黑" font-weight="normal" font-style="normal" text-decoration="none" family="微软雅黑" text-anchor="middle" size="13">公众号</text></g></g><g id="ProcessOnG1222" transform="matrix(1.0,0.0,0.0,1.0,900.3287671232877,785.4878582978189)" opacity="1.0"><path id="ProcessOnPath1223" d="M0.0 0.0L75.34246575342465 0.0L75.34246575342465 36.14548825979831L0.0 36.14548825979831L0.0 0.0Z" stroke="#0b6cc3" stroke-width="2.0" stroke-dasharray="none" opacity="1.0" fill="url(#ProcessOnLinearGradient1224)"/><g id="ProcessOnG1227" transform="matrix(1.0,0.0,0.0,1.0,10.0,9.947744129899156)"><text id="ProcessOnText1228" fill="#000000" font-size="13" x="26.671232876712324" y="13.325" font-family="微软雅黑" font-weight="normal" font-style="normal" text-decoration="none" family="微软雅黑" text-anchor="middle" size="13">小程序</text></g></g><g id="ProcessOnG1229" transform="matrix(1.0,0.0,0.0,1.0,520.5458564758301,849.433349609375)" opacity="1.0"><g id="ProcessOnG1231" transform="matrix(0.7307972562485847,0.0,0.0,0.7553419455503806,0.0,0.0)"> <g id="Layer_1"> <polygon fill="#2E73B8" points="69,25.458 69,17.224 60.333,7.692 46.146,39 60.333,70.202 69,60.775 69,52.543 66.077,54.489 66.077,50.484 69,49.074 69,40.734 66.077,40.842 66.077,37.159 69,37.266 69,29.142 66.077,27.624 66.077,24.916 "/> <polygon fill="#5294CF" points="44.846,78 60.333,70.308 60.333,7.692 44.846,0 27.297,39.652 "/> <polygon fill="#2E73B8" points="23.182,78 44.846,78 44.846,0 23.182,0 12.024,39.652 "/> <polygon fill="#205B99" points="23.182,78 7.581,70.308 2.707,39.652 7.581,7.692 23.182,0 "/> <polygon fill="#19486F" points="66.077,50.484 60.333,53.302 44.846,56.658 34.338,56.658 23.182,56.658 8.017,53.302 7.799,53.302 7.581,53.302 7.581,41.493 23.182,42.575 34.338,42.575 44.846,42.575 60.333,41.493 69,40.734 66.077,40.734 66.077,37.266 68.895,37.266 60.333,36.616 44.846,36.074 34.338,36.074 23.291,36.074 7.581,36.51 7.581,24.592 7.799,24.592 23.291,20.908 34.338,20.908 44.846,20.908 60.333,24.592 66.077,27.624 66.077,25.675 69,25.458 60.333,19.392 44.846,14.408 34.338,14.408 23.291,14.408 7.581,19.608 7.581,7.692 0,17.224 0,25.458 2.166,25.675 2.166,27.733 0,29.032 0,37.266 2.166,37.266 2.166,40.734 0,40.734 0,48.968 2.166,50.268 2.166,52.325 0,52.543 0,60.775 7.581,70.202 7.581,58.394 23.182,63.157 34.338,63.157 44.846,63.157 60.333,58.394 69,52.543 66.077,52.325 "/> </g>  </g><g id="ProcessOnG1232" transform="matrix(1.0,0.0,0.0,1.0,-20.0,65.79167175292969)"><text id="ProcessOnText1233" fill="#000000" font-size="13" x="44.21250534057617" y="13.325" font-family="微软雅黑" font-weight="normal" font-style="normal" text-decoration="none" family="微软雅黑" text-anchor="middle" size="13">Ngnix服务器</text></g></g><g id="ProcessOnG1234"><path id="ProcessOnPath1235" d="M545.7583618164062 908.3500213623047L545.7583618164062 951.1390752792358L545.7583618164062 951.1390752792358L545.7583618164062 978.6920612186672" stroke="#ff0000" stroke-width="2.0" stroke-dasharray="none" fill="none" marker-end="url(#ProcessOnMarker1236)"/></g><g id="ProcessOnG1238"><path id="ProcessOnPath1239" d="M545.7583618164062 908.3500213623047L545.7583618164062 951.1390752792358L753.5833511352539 951.1390752792358L753.5833511352539 978.6920612186672" stroke="#ff0000" stroke-width="2.0" stroke-dasharray="none" fill="none" marker-end="url(#ProcessOnMarker1240)"/></g><g id="ProcessOnG1242"><path id="ProcessOnPath1243" d="M545.7583618164062 908.3500213623047L545.7583618164062 951.1390752792358L359.5 951.1390752792358L359.5 978.6920612186672" stroke="#ff0000" stroke-width="2.0" stroke-dasharray="none" fill="none" marker-end="url(#ProcessOnMarker1244)"/></g><g id="ProcessOnG1246"><path id="ProcessOnPath1247" d="M446.28334045410156 623.1750106811523L478.4666862487793 623.1750106811523L478.4666862487793 623.1750106811523L495.41396406595726 623.1750106811523" stroke="#ff0000" stroke-width="2.0" stroke-dasharray="none" fill="none" marker-end="url(#ProcessOnMarker1248)"/></g><g id="ProcessOnG1250"><path id="ProcessOnPath1251" d="M545.7583618164062 786.9250030517578L545.7583618164062 818.1791763305664L545.7583618164062 818.1791763305664L545.7583618164062 834.1972816318752" stroke="#ff0000" stroke-width="2.0" stroke-dasharray="none" fill="none" marker-end="url(#ProcessOnMarker1252)"/></g><g id="ProcessOnG1254"><path id="ProcessOnPath1255" d="M684.2917022705078 664.7833404541016L684.2917022705078 711.5958404541016L545.7583618164062 711.5958404541016L545.7583618164062 743.1722724766017" stroke="#ff0000" stroke-width="2.0" stroke-dasharray="none" fill="none" marker-end="url(#ProcessOnMarker1256)"/></g><g id="ProcessOnG1258"><path id="ProcessOnPath1259" d="M580.8666915893555 623.1750106811523L615.025032043457 623.1750106811523L615.025032043457 623.1750106811523L633.9473045200588 623.1750106811523" stroke="#ff0000" stroke-width="2.0" stroke-dasharray="none" fill="none" marker-end="url(#ProcessOnMarker1260)"/></g><g id="ProcessOnG1262"><path id="ProcessOnPath1263" d="M900.3287671232877 743.1365078263916L804.2227293563216 743.1365078263916L804.2227293563216 772.6666717529297L723.3527595668553 772.6666717529297" stroke="#ff0000" stroke-width="2.0" stroke-dasharray="none" fill="none" marker-end="url(#ProcessOnMarker1264)"/></g><g id="ProcessOnG1266"><path id="ProcessOnPath1267" d="M900.3287671232877 803.5606024277181L804.2227293563216 803.5606024277181L804.2227293563216 772.6666717529297L723.3527595668553 772.6666717529297" stroke="#ff0000" stroke-width="2.0" stroke-dasharray="none" fill="none" marker-end="url(#ProcessOnMarker1268)"/></g><g id="ProcessOnG1270" transform="matrix(1.0,0.0,0.0,1.0,527.9250106811523,467.99168395996094)" opacity="1.0"><path id="ProcessOnPath1271" d="M13.233329772949219 0.0L26.466659545898438 13.233329772949219L17.732661895751953 13.233329772949219L17.732661895751953 68.68334197998047L26.466659545898438 68.68334197998047L13.233329772949219 81.91667175292969L0.0 68.68334197998047L8.733997650146485 68.68334197998047L8.733997650146485 13.233329772949219L0.0 13.233329772949219L13.233329772949219 0.0Z" stroke="#323232" stroke-width="2.0" stroke-dasharray="none" opacity="1.0" fill="#ff0000"/></g></g></g></svg>